<?xml version="1.0" standalone="no"?>
<!DOCTYPE svg PUBLIC "-//W3C//DTD SVG 20010904//EN"
 "http://www.w3.org/TR/2001/REC-SVG-20010904/DTD/svg10.dtd">
<svg version="1.0" xmlns="http://www.w3.org/2000/svg"
 width="700.000000pt" height="700.000000pt" viewBox="0 0 700.000000 700.000000"
 preserveAspectRatio="xMidYMid meet">
<metadata>
Created by potrace 1.11, written by Peter Selinger 2001-2013
</metadata>
<g transform="translate(0.000000,700.000000) scale(0.100000,-0.100000)"
fill="#000000" stroke="none">
<path d="M0 3500 l0 -3500 3500 0 3500 0 0 3500 0 3500 -3500 0 -3500 0 0
-3500z m2165 2770 c265 -25 452 -100 613 -246 194 -176 302 -406 331 -709 6
-60 14 -222 17 -360 7 -280 1 -329 -42 -345 -34 -13 -800 -13 -824 0 -32 17
-39 65 -45 303 -11 423 -50 523 -201 515 -79 -5 -122 -36 -161 -115 l-28 -58
0 -230 c0 -243 5 -286 57 -449 29 -93 107 -242 165 -319 26 -34 115 -145 198
-247 439 -537 572 -723 690 -965 170 -348 212 -577 202 -1090 -7 -361 -33
-497 -132 -696 -137 -278 -314 -419 -625 -500 -110 -29 -123 -31 -319 -30
-328 1 -457 18 -616 80 -122 47 -212 106 -306 201 -74 73 -94 102 -138 191
-89 182 -101 263 -101 725 0 302 1 323 19 345 l19 24 314 0 313 0 56 -26 c72
-34 123 -88 149 -156 17 -47 20 -78 20 -232 0 -215 11 -265 74 -327 47 -48
107 -70 161 -60 52 10 120 75 133 129 39 151 40 443 2 662 -53 307 -103 394
-549 969 -399 514 -478 630 -560 831 -63 152 -103 291 -136 470 -26 136 -26
148 -20 410 7 305 16 390 51 513 89 307 283 550 542 681 192 97 422 135 677
111z m3854 -53 c29 -20 50 -44 67 -80 l24 -52 0 -1591 0 -1592 -28 -53 c-22
-43 -38 -59 -81 -81 l-53 -28 -993 0 -992 0 -44 23 c-24 13 -57 43 -74 66
l-30 43 -3 1610 -2 1611 21 44 c23 47 70 89 116 103 15 5 478 8 1029 7 l1000
-2 43 -28z m-19 -3919 c26 -14 57 -41 75 -66 l30 -44 0 -641 0 -642 -24 -42
c-14 -24 -42 -55 -64 -70 l-40 -28 -996 -3 c-689 -2 -1007 0 -1033 8 -50 14
-97 56 -119 105 -17 37 -19 80 -19 663 0 540 2 628 15 660 21 49 52 81 100
103 38 18 89 19 1035 19 l996 0 44 -22z"/>
</g>
</svg>
